<?xml version="1.0" encoding="UTF-8" standalone="no"?>
<!DOCTYPE svg PUBLIC "-//W3C//DTD SVG 1.1//EN"
 "http://www.w3.org/Graphics/SVG/1.1/DTD/svg11.dtd">
<!-- Generated by graphviz version 2.43.0 (0)
 -->
<!-- Title: %3 Pages: 1 -->
<svg width="1854pt" height="377pt"
 viewBox="0.00 0.00 1853.50 377.00" xmlns="http://www.w3.org/2000/svg" xmlns:xlink="http://www.w3.org/1999/xlink">
<g id="graph0" class="graph" transform="scale(1 1) rotate(0) translate(4 373)">
<title>%3</title>
<polygon fill="white" stroke="transparent" points="-4,4 -4,-373 1849.5,-373 1849.5,4 -4,4"/>
<!-- PRINCIPAL -->
<g id="node1" class="node">
<title>PRINCIPAL</title>
<path fill="none" stroke="black" d="M854.5,-0.5C854.5,-0.5 997.5,-0.5 997.5,-0.5 1003.5,-0.5 1009.5,-6.5 1009.5,-12.5 1009.5,-12.5 1009.5,-101.5 1009.5,-101.5 1009.5,-107.5 1003.5,-113.5 997.5,-113.5 997.5,-113.5 854.5,-113.5 854.5,-113.5 848.5,-113.5 842.5,-107.5 842.5,-101.5 842.5,-101.5 842.5,-12.5 842.5,-12.5 842.5,-6.5 848.5,-0.5 854.5,-0.5"/>
<text text-anchor="middle" x="926" y="-98.3" font-family="Times,serif" font-size="14.00">14 December 2018</text>
<text text-anchor="middle" x="926" y="-83.3" font-family="Times,serif" font-size="14.00">patient 3d body pose</text>
<text text-anchor="middle" x="926" y="-68.3" font-family="Times,serif" font-size="14.00">estimation from</text>
<text text-anchor="middle" x="926" y="-53.3" font-family="Times,serif" font-size="14.00">pressure imaging</text>
<text text-anchor="middle" x="926" y="-38.3" font-family="Times,serif" font-size="14.00">&#45;</text>
<text text-anchor="middle" x="926" y="-23.3" font-family="Times,serif" font-size="14.00">Leslie Casas,Nassir</text>
<text text-anchor="middle" x="926" y="-8.3" font-family="Times,serif" font-size="14.00">Navab,S. Demirci</text>
</g>
<!-- REF0 -->
<g id="node2" class="node">
<title>REF0</title>
<g id="a_node2"><a xlink:href="https://www.semanticscholar.org/paper/Patient-MoCap%3A-Human-Pose-Estimation-Under-Blanket-Achilles-Ichim/f571408c27e0db22729f386dd8511cd9fe67dc00" xlink:title="2016\npatient mocap: human\npose estimation\nunder blanket\nocclusion for\nhospital monitoring\napplications\n&#45;\nF. Achilles, A.\nIchim, Huseyin\nCoskun, Federico\nTombari, S.\nNoachtar, Nassir\nNavab">
<path fill="none" stroke="black" d="M12,-150.5C12,-150.5 164,-150.5 164,-150.5 170,-150.5 176,-156.5 176,-162.5 176,-162.5 176,-356.5 176,-356.5 176,-362.5 170,-368.5 164,-368.5 164,-368.5 12,-368.5 12,-368.5 6,-368.5 0,-362.5 0,-356.5 0,-356.5 0,-162.5 0,-162.5 0,-156.5 6,-150.5 12,-150.5"/>
<text text-anchor="middle" x="88" y="-353.3" font-family="Times,serif" font-size="14.00">2016</text>
<text text-anchor="middle" x="88" y="-338.3" font-family="Times,serif" font-size="14.00">patient mocap: human</text>
<text text-anchor="middle" x="88" y="-323.3" font-family="Times,serif" font-size="14.00">pose estimation</text>
<text text-anchor="middle" x="88" y="-308.3" font-family="Times,serif" font-size="14.00">under blanket</text>
<text text-anchor="middle" x="88" y="-293.3" font-family="Times,serif" font-size="14.00">occlusion for</text>
<text text-anchor="middle" x="88" y="-278.3" font-family="Times,serif" font-size="14.00">hospital monitoring</text>
<text text-anchor="middle" x="88" y="-263.3" font-family="Times,serif" font-size="14.00">applications</text>
<text text-anchor="middle" x="88" y="-248.3" font-family="Times,serif" font-size="14.00">&#45;</text>
<text text-anchor="middle" x="88" y="-233.3" font-family="Times,serif" font-size="14.00">F. Achilles, A.</text>
<text text-anchor="middle" x="88" y="-218.3" font-family="Times,serif" font-size="14.00">Ichim, Huseyin</text>
<text text-anchor="middle" x="88" y="-203.3" font-family="Times,serif" font-size="14.00">Coskun, Federico</text>
<text text-anchor="middle" x="88" y="-188.3" font-family="Times,serif" font-size="14.00">Tombari, S.</text>
<text text-anchor="middle" x="88" y="-173.3" font-family="Times,serif" font-size="14.00">Noachtar, Nassir</text>
<text text-anchor="middle" x="88" y="-158.3" font-family="Times,serif" font-size="14.00">Navab</text>
</a>
</g>
</g>
<!-- REF0&#45;&gt;PRINCIPAL -->
<g id="edge1" class="edge">
<title>REF0&#45;&gt;PRINCIPAL</title>
<path fill="none" stroke="black" stroke-dasharray="5,2" d="M176.08,-155.13C179.01,-153.3 181.98,-151.58 185,-150 295.56,-92.1 658.97,-69.25 832.35,-61.48"/>
<polygon fill="black" stroke="black" points="832.65,-64.97 842.48,-61.04 832.34,-57.98 832.65,-64.97"/>
</g>
<!-- REF1 -->
<g id="node3" class="node">
<title>REF1</title>
<g id="a_node3"><a xlink:href="https://www.semanticscholar.org/paper/Markerless-estimation-of-patient-orientation%2C-and-Grimm-Bauer/096a441b6c4955e9ca4e31ae1ef56e291d29a3f8" xlink:title="2012\nmarkerless\nestimation of\npatient orientation,\nposture and pose\nusing range and\npressure imaging\n&#45;\nR. Grimm, S. Bauer,\nJ. Sukkau, J.\nHornegger, G.\nGreiner">
<path fill="none" stroke="black" d="M206,-165.5C206,-165.5 340,-165.5 340,-165.5 346,-165.5 352,-171.5 352,-177.5 352,-177.5 352,-341.5 352,-341.5 352,-347.5 346,-353.5 340,-353.5 340,-353.5 206,-353.5 206,-353.5 200,-353.5 194,-347.5 194,-341.5 194,-341.5 194,-177.5 194,-177.5 194,-171.5 200,-165.5 206,-165.5"/>
<text text-anchor="middle" x="273" y="-338.3" font-family="Times,serif" font-size="14.00">2012</text>
<text text-anchor="middle" x="273" y="-323.3" font-family="Times,serif" font-size="14.00">markerless</text>
<text text-anchor="middle" x="273" y="-308.3" font-family="Times,serif" font-size="14.00">estimation of</text>
<text text-anchor="middle" x="273" y="-293.3" font-family="Times,serif" font-size="14.00">patient orientation,</text>
<text text-anchor="middle" x="273" y="-278.3" font-family="Times,serif" font-size="14.00">posture and pose</text>
<text text-anchor="middle" x="273" y="-263.3" font-family="Times,serif" font-size="14.00">using range and</text>
<text text-anchor="middle" x="273" y="-248.3" font-family="Times,serif" font-size="14.00">pressure imaging</text>
<text text-anchor="middle" x="273" y="-233.3" font-family="Times,serif" font-size="14.00">&#45;</text>
<text text-anchor="middle" x="273" y="-218.3" font-family="Times,serif" font-size="14.00">R. Grimm, S. Bauer,</text>
<text text-anchor="middle" x="273" y="-203.3" font-family="Times,serif" font-size="14.00">J. Sukkau, J.</text>
<text text-anchor="middle" x="273" y="-188.3" font-family="Times,serif" font-size="14.00">Hornegger, G.</text>
<text text-anchor="middle" x="273" y="-173.3" font-family="Times,serif" font-size="14.00">Greiner</text>
</a>
</g>
</g>
<!-- REF1&#45;&gt;PRINCIPAL -->
<g id="edge2" class="edge">
<title>REF1&#45;&gt;PRINCIPAL</title>
<path fill="none" stroke="black" stroke-dasharray="5,2" d="M339.81,-165.29C346.48,-159.53 353.55,-154.32 361,-150 439.38,-104.56 692.67,-77.18 831.99,-65.19"/>
<polygon fill="black" stroke="black" points="832.57,-68.65 842.24,-64.31 831.97,-61.67 832.57,-68.65"/>
</g>
<!-- REF2 -->
<g id="node4" class="node">
<title>REF2</title>
<g id="a_node4"><a xlink:href="https://www.semanticscholar.org/paper/Parsing-human-skeletons-in-an-operating-room-Belagiannis-Wang/ad15e64c93676b57ebcef4c2c4183d41b246f8ae" xlink:title="2016\nparsing human\nskeletons in an\noperating room\n&#45;\nVasileios\nBelagiannis, Xinchao\nWang, Nassir Navab">
<path fill="none" stroke="black" d="M382.5,-195.5C382.5,-195.5 523.5,-195.5 523.5,-195.5 529.5,-195.5 535.5,-201.5 535.5,-207.5 535.5,-207.5 535.5,-311.5 535.5,-311.5 535.5,-317.5 529.5,-323.5 523.5,-323.5 523.5,-323.5 382.5,-323.5 382.5,-323.5 376.5,-323.5 370.5,-317.5 370.5,-311.5 370.5,-311.5 370.5,-207.5 370.5,-207.5 370.5,-201.5 376.5,-195.5 382.5,-195.5"/>
<text text-anchor="middle" x="453" y="-308.3" font-family="Times,serif" font-size="14.00">2016</text>
<text text-anchor="middle" x="453" y="-293.3" font-family="Times,serif" font-size="14.00">parsing human</text>
<text text-anchor="middle" x="453" y="-278.3" font-family="Times,serif" font-size="14.00">skeletons in an</text>
<text text-anchor="middle" x="453" y="-263.3" font-family="Times,serif" font-size="14.00">operating room</text>
<text text-anchor="middle" x="453" y="-248.3" font-family="Times,serif" font-size="14.00">&#45;</text>
<text text-anchor="middle" x="453" y="-233.3" font-family="Times,serif" font-size="14.00">Vasileios</text>
<text text-anchor="middle" x="453" y="-218.3" font-family="Times,serif" font-size="14.00">Belagiannis, Xinchao</text>
<text text-anchor="middle" x="453" y="-203.3" font-family="Times,serif" font-size="14.00">Wang, Nassir Navab</text>
</a>
</g>
</g>
<!-- REF2&#45;&gt;PRINCIPAL -->
<g id="edge3" class="edge">
<title>REF2&#45;&gt;PRINCIPAL</title>
<path fill="none" stroke="black" stroke-dasharray="5,2" d="M494.44,-195.5C508.36,-178.52 525.19,-161.65 544,-150 632.28,-95.31 750.66,-73.13 832.12,-64.14"/>
<polygon fill="black" stroke="black" points="832.78,-67.59 842.36,-63.05 832.05,-60.62 832.78,-67.59"/>
</g>
<!-- REF3 -->
<g id="node5" class="node">
<title>REF3</title>
<g id="a_node5"><a xlink:href="https://www.semanticscholar.org/paper/Human-Pose-Estimation-from-Pressure-Sensor-Data-Casas-M%C3%BCrwald/ff4eb42c68306f0cb12c2cc297560a67b93c27e7" xlink:title="2018\nhuman pose\nestimation from\npressure sensor data\n&#45;\nLeslie Casas, Chris\nMürwald, S. Demirci">
<path fill="none" stroke="black" d="M565.5,-203C565.5,-203 708.5,-203 708.5,-203 714.5,-203 720.5,-209 720.5,-215 720.5,-215 720.5,-304 720.5,-304 720.5,-310 714.5,-316 708.5,-316 708.5,-316 565.5,-316 565.5,-316 559.5,-316 553.5,-310 553.5,-304 553.5,-304 553.5,-215 553.5,-215 553.5,-209 559.5,-203 565.5,-203"/>
<text text-anchor="middle" x="637" y="-300.8" font-family="Times,serif" font-size="14.00">2018</text>
<text text-anchor="middle" x="637" y="-285.8" font-family="Times,serif" font-size="14.00">human pose</text>
<text text-anchor="middle" x="637" y="-270.8" font-family="Times,serif" font-size="14.00">estimation from</text>
<text text-anchor="middle" x="637" y="-255.8" font-family="Times,serif" font-size="14.00">pressure sensor data</text>
<text text-anchor="middle" x="637" y="-240.8" font-family="Times,serif" font-size="14.00">&#45;</text>
<text text-anchor="middle" x="637" y="-225.8" font-family="Times,serif" font-size="14.00">Leslie Casas, Chris</text>
<text text-anchor="middle" x="637" y="-210.8" font-family="Times,serif" font-size="14.00">Mürwald, S. Demirci</text>
</a>
</g>
</g>
<!-- REF3&#45;&gt;PRINCIPAL -->
<g id="edge4" class="edge">
<title>REF3&#45;&gt;PRINCIPAL</title>
<path fill="none" stroke="black" stroke-dasharray="5,2" d="M676.44,-202.87C691.41,-184.43 709.57,-164.84 729,-150 760.12,-126.23 798.37,-106.62 832.87,-91.7"/>
<polygon fill="black" stroke="black" points="834.65,-94.74 842.48,-87.61 831.91,-88.3 834.65,-94.74"/>
</g>
<!-- REF4 -->
<g id="node6" class="node">
<title>REF4</title>
<g id="a_node6"><a xlink:href="https://www.semanticscholar.org/paper/A-Multi-view-RGB-D-Approach-for-Human-Pose-in-Rooms-Kadkhodamohammadi-Gangi/7c8dfb7f20bba5de883c5135763ac68011b05faa" xlink:title="2017\na multi&#45;view rgb&#45;d\napproach for human\npose estimation in\noperating rooms\n&#45;\nA.\nKadkhodamohammadi,\nA. Gangi, M.\nMathelin, N. Padoy">
<path fill="none" stroke="black" d="M750.5,-180.5C750.5,-180.5 905.5,-180.5 905.5,-180.5 911.5,-180.5 917.5,-186.5 917.5,-192.5 917.5,-192.5 917.5,-326.5 917.5,-326.5 917.5,-332.5 911.5,-338.5 905.5,-338.5 905.5,-338.5 750.5,-338.5 750.5,-338.5 744.5,-338.5 738.5,-332.5 738.5,-326.5 738.5,-326.5 738.5,-192.5 738.5,-192.5 738.5,-186.5 744.5,-180.5 750.5,-180.5"/>
<text text-anchor="middle" x="828" y="-323.3" font-family="Times,serif" font-size="14.00">2017</text>
<text text-anchor="middle" x="828" y="-308.3" font-family="Times,serif" font-size="14.00">a multi&#45;view rgb&#45;d</text>
<text text-anchor="middle" x="828" y="-293.3" font-family="Times,serif" font-size="14.00">approach for human</text>
<text text-anchor="middle" x="828" y="-278.3" font-family="Times,serif" font-size="14.00">pose estimation in</text>
<text text-anchor="middle" x="828" y="-263.3" font-family="Times,serif" font-size="14.00">operating rooms</text>
<text text-anchor="middle" x="828" y="-248.3" font-family="Times,serif" font-size="14.00">&#45;</text>
<text text-anchor="middle" x="828" y="-233.3" font-family="Times,serif" font-size="14.00">A.</text>
<text text-anchor="middle" x="828" y="-218.3" font-family="Times,serif" font-size="14.00">Kadkhodamohammadi,</text>
<text text-anchor="middle" x="828" y="-203.3" font-family="Times,serif" font-size="14.00">A. Gangi, M.</text>
<text text-anchor="middle" x="828" y="-188.3" font-family="Times,serif" font-size="14.00">Mathelin, N. Padoy</text>
</a>
</g>
</g>
<!-- REF4&#45;&gt;PRINCIPAL -->
<g id="edge5" class="edge">
<title>REF4&#45;&gt;PRINCIPAL</title>
<path fill="none" stroke="black" stroke-dasharray="5,2" d="M866.17,-180.41C875.5,-161.31 885.39,-141.09 894.38,-122.7"/>
<polygon fill="black" stroke="black" points="897.6,-124.07 898.85,-113.55 891.31,-121 897.6,-124.07"/>
</g>
<!-- REF5 -->
<g id="node7" class="node">
<title>REF5</title>
<g id="a_node7"><a xlink:href="https://www.semanticscholar.org/paper/Recurrent-Human-Pose-Estimation-Belagiannis-Zisserman/2dd46b83a1cf5c7c811a462728d9797c270c2cb4" xlink:title="2017\nrecurrent human pose\nestimation\n&#45;\nVasileios\nBelagiannis, Andrew\nZisserman">
<path fill="none" stroke="black" d="M948,-203C948,-203 1100,-203 1100,-203 1106,-203 1112,-209 1112,-215 1112,-215 1112,-304 1112,-304 1112,-310 1106,-316 1100,-316 1100,-316 948,-316 948,-316 942,-316 936,-310 936,-304 936,-304 936,-215 936,-215 936,-209 942,-203 948,-203"/>
<text text-anchor="middle" x="1024" y="-300.8" font-family="Times,serif" font-size="14.00">2017</text>
<text text-anchor="middle" x="1024" y="-285.8" font-family="Times,serif" font-size="14.00">recurrent human pose</text>
<text text-anchor="middle" x="1024" y="-270.8" font-family="Times,serif" font-size="14.00">estimation</text>
<text text-anchor="middle" x="1024" y="-255.8" font-family="Times,serif" font-size="14.00">&#45;</text>
<text text-anchor="middle" x="1024" y="-240.8" font-family="Times,serif" font-size="14.00">Vasileios</text>
<text text-anchor="middle" x="1024" y="-225.8" font-family="Times,serif" font-size="14.00">Belagiannis, Andrew</text>
<text text-anchor="middle" x="1024" y="-210.8" font-family="Times,serif" font-size="14.00">Zisserman</text>
</a>
</g>
</g>
<!-- REF5&#45;&gt;PRINCIPAL -->
<g id="edge6" class="edge">
<title>REF5&#45;&gt;PRINCIPAL</title>
<path fill="none" stroke="black" stroke-dasharray="5,2" d="M996.83,-202.92C984.72,-178.14 970.38,-148.8 957.78,-123.02"/>
<polygon fill="black" stroke="black" points="960.76,-121.14 953.22,-113.69 954.47,-124.21 960.76,-121.14"/>
</g>
<!-- REF6 -->
<g id="node8" class="node">
<title>REF6</title>
<g id="a_node8"><a xlink:href="https://www.semanticscholar.org/paper/Fall-Detection-With-Multiple-Cameras%3A-An-Method-on-Auvinet-Multon/54d317853deddf601d51c59a6e9f489d27fd41c0" xlink:title="2011\nfall detection with\nmultiple cameras: an\nocclusion&#45;resistant\nmethod based on 3&#45;d\nsilhouette vertical\ndistribution\n&#45;\nE. Auvinet, F.\nMulton, A. St&#45;\nArnaud, J. Rousseau,\nJ. Meunier">
<path fill="none" stroke="black" d="M1141.5,-165.5C1141.5,-165.5 1284.5,-165.5 1284.5,-165.5 1290.5,-165.5 1296.5,-171.5 1296.5,-177.5 1296.5,-177.5 1296.5,-341.5 1296.5,-341.5 1296.5,-347.5 1290.5,-353.5 1284.5,-353.5 1284.5,-353.5 1141.5,-353.5 1141.5,-353.5 1135.5,-353.5 1129.5,-347.5 1129.5,-341.5 1129.5,-341.5 1129.5,-177.5 1129.5,-177.5 1129.5,-171.5 1135.5,-165.5 1141.5,-165.5"/>
<text text-anchor="middle" x="1213" y="-338.3" font-family="Times,serif" font-size="14.00">2011</text>
<text text-anchor="middle" x="1213" y="-323.3" font-family="Times,serif" font-size="14.00">fall detection with</text>
<text text-anchor="middle" x="1213" y="-308.3" font-family="Times,serif" font-size="14.00">multiple cameras: an</text>
<text text-anchor="middle" x="1213" y="-293.3" font-family="Times,serif" font-size="14.00">occlusion&#45;resistant</text>
<text text-anchor="middle" x="1213" y="-278.3" font-family="Times,serif" font-size="14.00">method based on 3&#45;d</text>
<text text-anchor="middle" x="1213" y="-263.3" font-family="Times,serif" font-size="14.00">silhouette vertical</text>
<text text-anchor="middle" x="1213" y="-248.3" font-family="Times,serif" font-size="14.00">distribution</text>
<text text-anchor="middle" x="1213" y="-233.3" font-family="Times,serif" font-size="14.00">&#45;</text>
<text text-anchor="middle" x="1213" y="-218.3" font-family="Times,serif" font-size="14.00">E. Auvinet, F.</text>
<text text-anchor="middle" x="1213" y="-203.3" font-family="Times,serif" font-size="14.00">Multon, A. St&#45;</text>
<text text-anchor="middle" x="1213" y="-188.3" font-family="Times,serif" font-size="14.00">Arnaud, J. Rousseau,</text>
<text text-anchor="middle" x="1213" y="-173.3" font-family="Times,serif" font-size="14.00">J. Meunier</text>
</a>
</g>
</g>
<!-- REF6&#45;&gt;PRINCIPAL -->
<g id="edge7" class="edge">
<title>REF6&#45;&gt;PRINCIPAL</title>
<path fill="none" stroke="black" stroke-dasharray="5,2" d="M1139.08,-165.45C1133.22,-159.95 1127.17,-154.73 1121,-150 1090.45,-126.58 1052.98,-107.13 1019.08,-92.24"/>
<polygon fill="black" stroke="black" points="1020.19,-88.9 1009.62,-88.16 1017.42,-95.33 1020.19,-88.9"/>
</g>
<!-- REF7 -->
<g id="node9" class="node">
<title>REF7</title>
<g id="a_node9"><a xlink:href="https://www.semanticscholar.org/paper/Convolutional-Pose-Machines-Wei-Ramakrishna/864e7db59f2ccfec1ee9f6eba79566ac7b0634df" xlink:title="2016\nconvolutional pose\nmachines\n&#45;\nShih&#45;En Wei, V.\nRamakrishna, T.\nKanade, Yaser Sheikh">
<path fill="none" stroke="black" d="M1326.5,-203C1326.5,-203 1473.5,-203 1473.5,-203 1479.5,-203 1485.5,-209 1485.5,-215 1485.5,-215 1485.5,-304 1485.5,-304 1485.5,-310 1479.5,-316 1473.5,-316 1473.5,-316 1326.5,-316 1326.5,-316 1320.5,-316 1314.5,-310 1314.5,-304 1314.5,-304 1314.5,-215 1314.5,-215 1314.5,-209 1320.5,-203 1326.5,-203"/>
<text text-anchor="middle" x="1400" y="-300.8" font-family="Times,serif" font-size="14.00">2016</text>
<text text-anchor="middle" x="1400" y="-285.8" font-family="Times,serif" font-size="14.00">convolutional pose</text>
<text text-anchor="middle" x="1400" y="-270.8" font-family="Times,serif" font-size="14.00">machines</text>
<text text-anchor="middle" x="1400" y="-255.8" font-family="Times,serif" font-size="14.00">&#45;</text>
<text text-anchor="middle" x="1400" y="-240.8" font-family="Times,serif" font-size="14.00">Shih&#45;En Wei, V.</text>
<text text-anchor="middle" x="1400" y="-225.8" font-family="Times,serif" font-size="14.00">Ramakrishna, T.</text>
<text text-anchor="middle" x="1400" y="-210.8" font-family="Times,serif" font-size="14.00">Kanade, Yaser Sheikh</text>
</a>
</g>
</g>
<!-- REF7&#45;&gt;PRINCIPAL -->
<g id="edge8" class="edge">
<title>REF7&#45;&gt;PRINCIPAL</title>
<path fill="none" stroke="black" stroke-dasharray="5,2" d="M1362.9,-202.87C1347.42,-183.53 1327.92,-163.36 1306,-150 1218.03,-96.4 1100.82,-74.02 1019.95,-64.68"/>
<polygon fill="black" stroke="black" points="1020.1,-61.18 1009.78,-63.55 1019.33,-68.13 1020.1,-61.18"/>
</g>
<!-- REF8 -->
<g id="node10" class="node">
<title>REF8</title>
<g id="a_node10"><a xlink:href="https://www.semanticscholar.org/paper/Robust-Optimization-for-Deep-Regression-Belagiannis-Rupprecht/a5147d10cc4c66d14edbd702f72b272bf7d6a845" xlink:title="2015\nrobust optimization\nfor deep regression\n&#45;\nVasileios\nBelagiannis, C.\nRupprecht, G.\nCarneiro, Nassir\nNavab">
<path fill="none" stroke="black" d="M1515.5,-188C1515.5,-188 1648.5,-188 1648.5,-188 1654.5,-188 1660.5,-194 1660.5,-200 1660.5,-200 1660.5,-319 1660.5,-319 1660.5,-325 1654.5,-331 1648.5,-331 1648.5,-331 1515.5,-331 1515.5,-331 1509.5,-331 1503.5,-325 1503.5,-319 1503.5,-319 1503.5,-200 1503.5,-200 1503.5,-194 1509.5,-188 1515.5,-188"/>
<text text-anchor="middle" x="1582" y="-315.8" font-family="Times,serif" font-size="14.00">2015</text>
<text text-anchor="middle" x="1582" y="-300.8" font-family="Times,serif" font-size="14.00">robust optimization</text>
<text text-anchor="middle" x="1582" y="-285.8" font-family="Times,serif" font-size="14.00">for deep regression</text>
<text text-anchor="middle" x="1582" y="-270.8" font-family="Times,serif" font-size="14.00">&#45;</text>
<text text-anchor="middle" x="1582" y="-255.8" font-family="Times,serif" font-size="14.00">Vasileios</text>
<text text-anchor="middle" x="1582" y="-240.8" font-family="Times,serif" font-size="14.00">Belagiannis, C.</text>
<text text-anchor="middle" x="1582" y="-225.8" font-family="Times,serif" font-size="14.00">Rupprecht, G.</text>
<text text-anchor="middle" x="1582" y="-210.8" font-family="Times,serif" font-size="14.00">Carneiro, Nassir</text>
<text text-anchor="middle" x="1582" y="-195.8" font-family="Times,serif" font-size="14.00">Navab</text>
</a>
</g>
</g>
<!-- REF8&#45;&gt;PRINCIPAL -->
<g id="edge9" class="edge">
<title>REF8&#45;&gt;PRINCIPAL</title>
<path fill="none" stroke="black" stroke-dasharray="5,2" d="M1537.91,-187.83C1525.7,-173.26 1511.27,-159.48 1495,-150 1416.03,-103.98 1160.02,-76.79 1019.86,-64.99"/>
<polygon fill="black" stroke="black" points="1019.81,-61.48 1009.56,-64.14 1019.23,-68.45 1019.81,-61.48"/>
</g>
<!-- REF9 -->
<g id="node11" class="node">
<title>REF9</title>
<g id="a_node11"><a xlink:href="https://www.semanticscholar.org/paper/PersonLab%3A-Person-Pose-Estimation-and-Instance-with-Papandreou-Zhu/aa159dbc73f8a4c5a4c81295e20a2086a63d55b6" xlink:title="2018\npersonlab: person\npose estimation and\ninstance\nsegmentation with a\nbottom&#45;up, part&#45;\nbased, geometric\nembedding model\n&#45;\nG. Papandreou, Tyler\nLixuan Zhu, Liang&#45;\nChieh Chen, Spyros\nGidaris, Jonathan\nTompson, K. Murphy">
<path fill="none" stroke="black" d="M1690.5,-150.5C1690.5,-150.5 1833.5,-150.5 1833.5,-150.5 1839.5,-150.5 1845.5,-156.5 1845.5,-162.5 1845.5,-162.5 1845.5,-356.5 1845.5,-356.5 1845.5,-362.5 1839.5,-368.5 1833.5,-368.5 1833.5,-368.5 1690.5,-368.5 1690.5,-368.5 1684.5,-368.5 1678.5,-362.5 1678.5,-356.5 1678.5,-356.5 1678.5,-162.5 1678.5,-162.5 1678.5,-156.5 1684.5,-150.5 1690.5,-150.5"/>
<text text-anchor="middle" x="1762" y="-353.3" font-family="Times,serif" font-size="14.00">2018</text>
<text text-anchor="middle" x="1762" y="-338.3" font-family="Times,serif" font-size="14.00">personlab: person</text>
<text text-anchor="middle" x="1762" y="-323.3" font-family="Times,serif" font-size="14.00">pose estimation and</text>
<text text-anchor="middle" x="1762" y="-308.3" font-family="Times,serif" font-size="14.00">instance</text>
<text text-anchor="middle" x="1762" y="-293.3" font-family="Times,serif" font-size="14.00">segmentation with a</text>
<text text-anchor="middle" x="1762" y="-278.3" font-family="Times,serif" font-size="14.00">bottom&#45;up, part&#45;</text>
<text text-anchor="middle" x="1762" y="-263.3" font-family="Times,serif" font-size="14.00">based, geometric</text>
<text text-anchor="middle" x="1762" y="-248.3" font-family="Times,serif" font-size="14.00">embedding model</text>
<text text-anchor="middle" x="1762" y="-233.3" font-family="Times,serif" font-size="14.00">&#45;</text>
<text text-anchor="middle" x="1762" y="-218.3" font-family="Times,serif" font-size="14.00">G. Papandreou, Tyler</text>
<text text-anchor="middle" x="1762" y="-203.3" font-family="Times,serif" font-size="14.00">Lixuan Zhu, Liang&#45;</text>
<text text-anchor="middle" x="1762" y="-188.3" font-family="Times,serif" font-size="14.00">Chieh Chen, Spyros</text>
<text text-anchor="middle" x="1762" y="-173.3" font-family="Times,serif" font-size="14.00">Gidaris, Jonathan</text>
<text text-anchor="middle" x="1762" y="-158.3" font-family="Times,serif" font-size="14.00">Tompson, K. Murphy</text>
</a>
</g>
</g>
<!-- REF9&#45;&gt;PRINCIPAL -->
<g id="edge10" class="edge">
<title>REF9&#45;&gt;PRINCIPAL</title>
<path fill="none" stroke="black" stroke-dasharray="5,2" d="M1678.32,-154.94C1675.6,-153.18 1672.82,-151.53 1670,-150 1559.69,-90.41 1194.02,-68.41 1019.84,-61.17"/>
<polygon fill="black" stroke="black" points="1019.79,-57.66 1009.66,-60.75 1019.51,-64.66 1019.79,-57.66"/>
</g>
</g>
</svg>
